<?xml version="1.0" encoding="UTF-8"?>
<svg xmlns="http://www.w3.org/2000/svg" xmlns:xlink="http://www.w3.org/1999/xlink" width="108pt" height="35pt" viewBox="0 0 108 35" version="1.1">
<g id="surface1">
<path style=" stroke:none;fill-rule:nonzero;fill:rgb(11.764706%,17.647059%,20%);fill-opacity:1;" d="M 18.570312 22.945312 C 17.683594 22.820312 16.480469 22.289062 16.175781 21.886719 C 15.65625 21.210938 16.175781 20.414062 17.390625 19.992188 C 18.546875 19.585938 18.050781 19.605469 30.144531 19.605469 L 40.96875 19.605469 L 41.335938 19.765625 C 41.640625 19.902344 41.703125 19.976562 41.703125 20.203125 C 41.703125 20.425781 41.640625 20.5 41.375 20.617188 L 41.046875 20.765625 L 30.230469 20.777344 L 19.417969 20.796875 L 19.101562 20.921875 C 18.671875 21.101562 18.597656 21.277344 18.8125 21.515625 C 19.179688 21.890625 18.722656 21.875 30.347656 21.875 C 37.75 21.875 40.894531 21.890625 41.109375 21.9375 C 42.007812 22.113281 41.917969 22.832031 40.996094 22.984375 C 40.792969 23.015625 36.496094 23.039062 29.941406 23.03125 C 20.738281 23.027344 19.117188 23.015625 18.570312 22.945312 Z M 18.570312 22.945312 "/>
<path style=" stroke:none;fill-rule:nonzero;fill:rgb(11.764706%,17.647059%,20%);fill-opacity:1;" d="M 47.089844 22.972656 C 47.054688 22.933594 47.039062 20.394531 47.054688 17.332031 L 47.089844 11.769531 L 48.230469 11.769531 L 48.269531 14.785156 C 48.28125 16.707031 48.347656 17.820312 48.421875 17.855469 C 48.511719 17.894531 49.703125 17.40625 52.035156 16.390625 C 53.949219 15.554688 57.15625 14.167969 59.160156 13.308594 L 62.808594 11.746094 L 63.417969 11.742188 C 63.824219 11.742188 64.039062 11.769531 64.089844 11.816406 C 64.140625 11.875 62.1875 12.75 58.5 14.347656 C 55.394531 15.699219 52.871094 16.828125 52.882812 16.867188 C 52.910156 16.925781 57.574219 19.277344 58.878906 19.902344 C 58.957031 19.9375 59.347656 20.140625 59.769531 20.351562 C 60.1875 20.566406 60.554688 20.75 60.589844 20.765625 C 60.871094 20.871094 64.660156 22.777344 64.761719 22.859375 C 64.9375 23.011719 64.824219 23.039062 64.128906 23.039062 L 63.519531 23.039062 L 61.464844 22.03125 C 58.398438 20.519531 58.121094 20.378906 56.027344 19.328125 C 52.769531 17.699219 51.921875 17.277344 51.832031 17.277344 C 51.792969 17.277344 50.996094 17.601562 50.058594 17.992188 L 48.359375 18.703125 L 48.296875 20.855469 L 48.230469 23.011719 L 47.6875 23.027344 C 47.332031 23.039062 47.128906 23.019531 47.089844 22.972656 Z M 47.089844 22.972656 "/>
<path style=" stroke:none;fill-rule:nonzero;fill:rgb(11.764706%,17.647059%,20%);fill-opacity:1;" d="M 26.53125 18.414062 C 24.78125 18.027344 23.425781 16.792969 23.617188 15.761719 C 23.882812 14.355469 25.820312 13.652344 28 14.175781 C 28.382812 14.269531 28.75 14.34375 28.824219 14.34375 C 28.902344 14.34375 29.308594 14.265625 29.710938 14.175781 C 30.980469 13.894531 32.121094 13.964844 32.945312 14.375 C 35.0625 15.421875 33.945312 17.761719 31.03125 18.417969 C 30.652344 18.507812 30.382812 18.511719 28.902344 18.492188 C 28.722656 18.484375 28.269531 18.503906 27.886719 18.523438 C 27.277344 18.558594 27.101562 18.542969 26.53125 18.414062 Z M 26.53125 18.414062 "/>
<path style=" stroke:none;fill-rule:nonzero;fill:rgb(22.352941%,38.823529%,82.352941%);fill-opacity:1;" d="M 18.570312 22.9375 C 17.605469 22.800781 16.441406 22.273438 16.160156 21.847656 C 15.707031 21.160156 16.199219 20.394531 17.390625 19.992188 C 18.546875 19.585938 18.050781 19.605469 30.144531 19.605469 L 40.96875 19.605469 L 41.335938 19.765625 C 41.640625 19.902344 41.703125 19.976562 41.703125 20.203125 C 41.703125 20.425781 41.640625 20.5 41.375 20.617188 L 41.046875 20.765625 L 30.207031 20.777344 L 19.367188 20.796875 L 19 20.976562 C 18.582031 21.183594 18.53125 21.371094 18.847656 21.582031 C 19.304688 21.878906 19.039062 21.875 30.347656 21.875 C 37.75 21.875 40.894531 21.890625 41.109375 21.9375 C 42.007812 22.113281 41.917969 22.832031 40.996094 22.984375 C 40.804688 23.015625 36.480469 23.039062 29.941406 23.03125 C 20.394531 23.027344 19.128906 23.015625 18.570312 22.9375 Z M 18.570312 22.9375 "/>
<path style=" stroke:none;fill-rule:nonzero;fill:rgb(22.352941%,38.823529%,82.352941%);fill-opacity:1;" d="M 47.089844 22.972656 C 47.054688 22.933594 47.039062 20.394531 47.054688 17.332031 L 47.089844 11.769531 L 47.585938 11.75 C 47.851562 11.742188 48.117188 11.75 48.183594 11.777344 C 48.246094 11.808594 48.296875 13.21875 48.296875 14.925781 L 48.308594 18.019531 L 51.910156 16.441406 C 53.898438 15.578125 57.15625 14.167969 59.160156 13.308594 L 62.808594 11.746094 L 63.417969 11.742188 C 63.824219 11.742188 64.039062 11.769531 64.089844 11.816406 C 64.140625 11.875 62.1875 12.75 58.5 14.347656 C 55.394531 15.699219 52.871094 16.828125 52.882812 16.867188 C 52.910156 16.925781 57.574219 19.277344 58.878906 19.902344 C 58.957031 19.9375 59.347656 20.140625 59.769531 20.351562 C 60.1875 20.566406 60.554688 20.75 60.589844 20.765625 C 60.871094 20.871094 64.660156 22.777344 64.761719 22.859375 C 64.9375 23.011719 64.824219 23.039062 64.128906 23.039062 L 63.519531 23.039062 L 61.464844 22.03125 C 58.398438 20.519531 58.121094 20.378906 56.027344 19.328125 C 52.769531 17.699219 51.921875 17.277344 51.832031 17.277344 C 51.792969 17.277344 50.996094 17.601562 50.058594 17.992188 L 48.359375 18.703125 L 48.296875 20.855469 L 48.230469 23.011719 L 47.6875 23.027344 C 47.332031 23.039062 47.128906 23.019531 47.089844 22.972656 Z M 47.089844 22.972656 "/>
<path style=" stroke:none;fill-rule:nonzero;fill:rgb(22.352941%,38.823529%,82.352941%);fill-opacity:1;" d="M 68.769531 22.972656 C 68.730469 22.933594 68.71875 20.394531 68.730469 17.332031 L 68.769531 11.769531 L 69.476562 11.75 C 70.289062 11.734375 70.238281 11.71875 70.921875 12.265625 C 71.1875 12.484375 71.734375 12.902344 72.125 13.207031 C 73.507812 14.265625 76.675781 16.703125 79.226562 18.679688 C 79.808594 19.128906 80.328125 19.492188 80.378906 19.492188 C 80.429688 19.492188 81.394531 18.777344 82.535156 17.902344 C 83.660156 17.023438 84.839844 16.125 85.144531 15.910156 C 85.449219 15.6875 85.691406 15.5 85.691406 15.488281 C 85.691406 15.449219 90.367188 11.878906 90.507812 11.808594 C 90.609375 11.761719 90.886719 11.742188 91.304688 11.75 L 91.964844 11.769531 L 91.964844 23.011719 L 90.824219 23.011719 L 90.761719 17.859375 L 90.695312 12.710938 L 90.367188 12.957031 C 90.175781 13.097656 89.503906 13.617188 88.859375 14.121094 C 88.210938 14.625 87.476562 15.195312 87.210938 15.394531 C 86.515625 15.921875 85.308594 16.859375 83.382812 18.359375 C 80.746094 20.40625 81.011719 20.242188 80.367188 20.242188 L 79.808594 20.242188 L 79.210938 19.792969 C 78.882812 19.542969 78.453125 19.207031 78.25 19.046875 C 78.046875 18.878906 77.273438 18.285156 76.539062 17.722656 C 75.804688 17.15625 75.054688 16.574219 74.851562 16.421875 C 73.546875 15.402344 72.242188 14.386719 71.9375 14.148438 C 71.035156 13.445312 70.199219 12.816406 70.085938 12.769531 C 70.023438 12.738281 69.972656 14.730469 69.972656 17.875 L 69.972656 23.039062 L 69.402344 23.039062 C 69.058594 23.039062 68.792969 23.011719 68.769531 22.972656 Z M 68.769531 22.972656 "/>
<path style=" stroke:none;fill-rule:nonzero;fill:rgb(22.352941%,38.823529%,82.352941%);fill-opacity:1;" d="M 26.53125 18.414062 C 24.78125 18.027344 23.425781 16.792969 23.617188 15.761719 C 23.816406 14.679688 24.945312 14.015625 26.59375 14.011719 C 27.242188 14.011719 28.140625 14.15625 28.332031 14.289062 C 28.46875 14.386719 28.9375 14.347656 29.710938 14.175781 C 30.980469 13.894531 32.121094 13.964844 32.945312 14.375 C 35.0625 15.421875 33.945312 17.761719 31.03125 18.417969 C 30.652344 18.507812 30.382812 18.511719 28.902344 18.492188 C 28.722656 18.484375 28.269531 18.503906 27.886719 18.523438 C 27.277344 18.558594 27.101562 18.542969 26.53125 18.414062 Z M 26.53125 18.414062 "/>
<path style=" stroke:none;fill-rule:nonzero;fill:rgb(22.352941%,38.823529%,82.352941%);fill-opacity:1;" d="M 28.824219 13.386719 C 28.710938 13.253906 29.089844 12.738281 29.523438 12.460938 C 30.09375 12.082031 31.511719 11.742188 32.5 11.742188 C 33.109375 11.742188 32.375 12.738281 31.539062 13.042969 C 30.636719 13.375 29.003906 13.578125 28.824219 13.386719 Z M 28.824219 13.386719 "/>
<path style=" stroke:none;fill-rule:nonzero;fill:rgb(36.862745%,55.294118%,95.294118%);fill-opacity:1;" d="M 60.453125 20.785156 C 59.867188 20.5 59.527344 20.324219 59.589844 20.324219 C 59.628906 20.324219 59.945312 20.472656 60.3125 20.65625 C 61.0625 21.023438 61.148438 21.105469 60.453125 20.785156 Z M 60.453125 20.785156 "/>
<path style=" stroke:none;fill-rule:nonzero;fill:rgb(36.862745%,55.294118%,95.294118%);fill-opacity:1;" d="M 58.054688 19.621094 C 57.777344 19.492188 57.765625 19.484375 58.003906 19.539062 C 58.15625 19.570312 58.308594 19.636719 58.359375 19.6875 C 58.449219 19.796875 58.425781 19.792969 58.054688 19.621094 Z M 58.054688 19.621094 "/>
<path style=" stroke:none;fill-rule:nonzero;fill:rgb(36.862745%,55.294118%,95.294118%);fill-opacity:1;" d="M 54.8125 18.679688 C 54.621094 18.5625 54.417969 18.464844 54.367188 18.453125 C 54.316406 18.441406 53.988281 18.292969 53.632812 18.109375 C 53.203125 17.894531 53.035156 17.769531 53.125 17.742188 C 53.214844 17.722656 53.238281 17.726562 53.203125 17.761719 C 53.164062 17.789062 53.46875 17.972656 53.886719 18.160156 C 54.660156 18.519531 55.34375 18.882812 55.230469 18.882812 C 55.203125 18.882812 55.015625 18.789062 54.8125 18.679688 Z M 54.8125 18.679688 "/>
<path style=" stroke:none;fill-rule:nonzero;fill:rgb(36.862745%,55.294118%,95.294118%);fill-opacity:1;" d="M 48.738281 18.503906 C 49.171875 18.273438 50.957031 17.511719 50.832031 17.605469 C 50.769531 17.65625 50.222656 17.902344 49.613281 18.164062 C 48.992188 18.425781 48.613281 18.574219 48.738281 18.503906 Z M 48.738281 18.503906 "/>
<path style=" stroke:none;fill-rule:nonzero;fill:rgb(36.862745%,55.294118%,95.294118%);fill-opacity:1;" d="M 57.777344 14.613281 C 58.070312 14.441406 60.476562 13.390625 60.527344 13.414062 C 60.554688 13.425781 59.917969 13.722656 59.109375 14.066406 C 58.296875 14.414062 57.703125 14.664062 57.777344 14.613281 Z M 57.777344 14.613281 "/>
<path style=" stroke:none;fill-rule:nonzero;fill:rgb(50.980392%,72.941176%,100%);fill-opacity:1;" d="M 49.945312 17.980469 C 49.945312 17.972656 50.132812 17.894531 50.363281 17.800781 L 50.769531 17.636719 L 50.398438 17.820312 C 50.046875 17.988281 49.945312 18.027344 49.945312 17.980469 Z M 49.945312 17.980469 "/>
</g>
</svg>
